<svg xmlns="http://www.w3.org/2000/svg" viewBox="0 0 491.89 235.59"><defs><style>.cls-1{fill:#fff;}</style></defs><g id="Layer_2" data-name="Layer 2"><g id="Layer_2-2" data-name="Layer 2"><path class="cls-1" d="M274.49,146.58a1.61,1.61,0,0,1-1-.37,32.78,32.78,0,0,1-11-26.22c.89-16.51,14.64-24.56,15.23-24.89a1.64,1.64,0,1,1,1.63,2.84h0c-.13.08-12.79,7.54-13.58,22.22a30.06,30.06,0,0,0,9.77,23.5,1.64,1.64,0,0,1,.24,2.31A1.62,1.62,0,0,1,274.49,146.58Z"/><path class="cls-1" d="M274.49,148.78a3.83,3.83,0,0,1-2.41-.85,35.18,35.18,0,0,1-11.8-28.06c1-17.68,15.7-26.32,16.33-26.68a3.85,3.85,0,0,1,5.24,1.42,3.85,3.85,0,0,1-1.42,5.24c-.11.07-11.77,7.07-12.48,20.43s8.88,21.6,9,21.68a3.84,3.84,0,0,1-2.43,6.82Zm-.36-3.41ZM278.23,96Z"/><path class="cls-1" d="M372.49,109a13.63,13.63,0,0,1-1.42-.07,15.54,15.54,0,0,1-6.66-2.31c-7-4.3-12.73-7.22-15.46-7.8-.32-.06-.61-.15-.83-.21-.66-.18-4.54-1-16.42,2a42.83,42.83,0,0,0-6.37,2.17,31.84,31.84,0,0,1-25.4-.18l-1-.43c-1.67-.66-6.07-2.82-10.8-8.66a1.64,1.64,0,1,1,2.55-2.06c4.35,5.38,8.34,7.23,9.45,7.67.35.13.71.29,1.14.47a28.58,28.58,0,0,0,22.8.17,47.09,47.09,0,0,1,6.86-2.33c12-3,16.68-2.41,18.12-2,.25.07.44.12.61.15,4.29.92,12.18,5.55,16.5,8.22a12.36,12.36,0,0,0,5.25,1.84,10.31,10.31,0,0,0,6.87-1.73,11.35,11.35,0,0,0,4.35-6.05c1.6-5.13,1.24-9.82-1.06-14a16.17,16.17,0,0,0-6.74-6.43C340.75,59.71,332.88,48.7,332,47.42c-9.48-11.71-21.17-18.1-34.73-19a46,46,0,0,0-17.76,2.23l-1.28-3c.18-.09,17.41-8.17,23.7-21.6-7.45,1-29.72,5.47-54.57,24a25.54,25.54,0,0,1-9.19,4.54c-5.34,1.49-14,2.25-24.8-2.6l-.12-.06c-.16-.09-16.33-8.78-34.14-5.79a42.41,42.41,0,0,0-9.25,2.75,57.77,57.77,0,0,1-21.56,4.33h0a48.47,48.47,0,0,1-33.47-13.13,1.64,1.64,0,0,1,2.21-2.43c20.88,19,44.76,11.08,51.58,8.21a44.89,44.89,0,0,1,10-3c18.58-3.12,34.89,5.41,36.2,6.11,18.89,8.43,30.36-1.38,30.48-1.48l.1-.09A136.16,136.16,0,0,1,286.68,6.13c10.71-3.27,17.48-3.64,17.76-3.65l2.43-.12-.8,2.3C302.85,13.93,295,21,288.62,25.34a52.78,52.78,0,0,1,8.76-.19c10,.62,24.65,4.65,37.27,20.28l.13.18c.06.1,7.14,11,41.54,29a19.38,19.38,0,0,1,8.08,7.75,20.62,20.62,0,0,1,1.33,16.53,14.57,14.57,0,0,1-5.64,7.79A13.34,13.34,0,0,1,372.49,109Z"/><path class="cls-1" d="M372.49,111.19c-.54,0-1.08,0-1.63-.08a17.77,17.77,0,0,1-7.61-2.63c-7.94-4.91-12.83-7.1-14.76-7.52-.37-.07-.71-.17-1-.24s-3.51-.92-15.28,2a40.06,40.06,0,0,0-6.05,2.06,34.11,34.11,0,0,1-27.14-.19l-1-.4c-1.83-.72-6.65-3.08-11.7-9.32a3.8,3.8,0,0,1-.84-2.82,3.88,3.88,0,0,1,1.4-2.59,3.86,3.86,0,0,1,5.41.57c4.12,5.09,7.84,6.73,8.55,7l1.21.51a26.45,26.45,0,0,0,21.06.16,49.09,49.09,0,0,1,7.18-2.44c12.1-3,17.26-2.56,19.26-2l.47.12c4.38.93,11.77,5.14,17.2,8.5a10.07,10.07,0,0,0,4.3,1.51A8,8,0,0,0,377,102.1a9.11,9.11,0,0,0,3.49-4.88c1.41-4.52,1.11-8.64-.89-12.24a14,14,0,0,0-5.83-5.55C340.42,62,331.8,51,330.27,48.73c-9.07-11.17-20.21-17.26-33.1-18.1a44,44,0,0,0-16.83,2.08l-2,.75-2.95-6.93,1.94-.89c.14-.07,13.36-6.32,20.4-16.66-10,2-28.52,7.55-49,22.82a27.7,27.7,0,0,1-10,4.93c-5.68,1.6-14.86,2.42-26.29-2.7l-.2-.1c-.23-.12-15.86-8.43-32.79-5.59A40.16,40.16,0,0,0,170.76,31a60.13,60.13,0,0,1-22.41,4.5,50.62,50.62,0,0,1-35-13.7,3.84,3.84,0,0,1,5.17-5.69c19.91,18.1,42.73,10.56,49.25,7.81a47.45,47.45,0,0,1,10.46-3.1c18.91-3.18,35.36,5.14,37.53,6.3,17.34,7.7,27.65-.81,28.08-1.17l.22-.18A138.47,138.47,0,0,1,286,4C297,.67,304,.29,304.34.28L310,0l-1.87,5.38c-2.51,7.21-7.64,13.09-12.72,17.48.7,0,1.39.05,2.08.09,10.48.66,25.73,4.85,38.86,21.1l.28.4c.05.07,7.39,10.79,40.69,28.17a21.7,21.7,0,0,1,9,8.63c3,5.43,3.53,11.74,1.5,18.26a16.75,16.75,0,0,1-6.51,8.95A15.48,15.48,0,0,1,372.49,111.19Z"/><path class="cls-1" d="M171.62,94c-10.62,0-25.07-3.29-39.1-17l-.05-.05c-.12-.13-12.65-13.17-23.69-9.27a1.64,1.64,0,0,1-1.09-3.1C120.6,60,134,73.72,134.83,74.6c11.8,11.54,25.22,16.92,39.87,16a48.72,48.72,0,0,0,18.7-4.94,1.64,1.64,0,1,1,1.6,2.86,50.89,50.89,0,0,1-19.93,5.34Q173.42,93.95,171.62,94Z"/><path class="cls-1" d="M171.62,96.15c-10.31,0-25.74-3.06-40.64-17.65l-.07-.07c-.15-.15-11.76-12.14-21.4-8.75a3.86,3.86,0,0,1-4.9-2.34,3.85,3.85,0,0,1,2.35-4.9c14.06-5,27.93,9,29.47,10.65,11.28,11,24.13,16.19,38.13,15.28a46.91,46.91,0,0,0,17.77-4.67,3.84,3.84,0,0,1,3.75,6.71A53.47,53.47,0,0,1,175.21,96C174,96.11,172.82,96.15,171.62,96.15Zm22.85-8.6Z"/><path class="cls-1" d="M179.08,118.47A69.15,69.15,0,0,1,165.55,117a80.2,80.2,0,0,1-36.17-17.92,1.64,1.64,0,0,1,2.14-2.49,76.85,76.85,0,0,0,34.55,17.17,59.24,59.24,0,0,0,16.11,1.28,1.64,1.64,0,0,1,.35,3.26C182.41,118.34,181.19,118.47,179.08,118.47Z"/><path class="cls-1" d="M179.08,120.67a71.18,71.18,0,0,1-14-1.48A82.38,82.38,0,0,1,128,100.78,3.84,3.84,0,0,1,133,95a74.67,74.67,0,0,0,33.55,16.68A57.41,57.41,0,0,0,182,112.88a3.84,3.84,0,0,1,.82,7.64C182.63,120.53,181.32,120.67,179.08,120.67Z"/><path class="cls-1" d="M184.67,61.18a118,118,0,0,1-44.36-8.48c-.81-.33-1.66-.64-2.48-1-1.07-.39-2.18-.8-3.27-1.27-4-1.71-14.25-5.06-24.1.62a1.64,1.64,0,0,1-1.64-2.84c11.14-6.43,22.62-2.7,27-.79,1,.43,2,.81,3.11,1.21.84.31,1.72.63,2.58,1a115.92,115.92,0,0,0,50.17,8,99.89,99.89,0,0,0,21.89-3.52,1.64,1.64,0,1,1,1,3.13A101.35,101.35,0,0,1,192,61C189.78,61.09,187.31,61.18,184.67,61.18Z"/><path class="cls-1" d="M184.67,63.38a119.33,119.33,0,0,1-45.19-8.64c-.78-.32-1.59-.62-2.37-.91-1.14-.42-2.28-.84-3.42-1.33-3.66-1.58-13.14-4.68-22.13.51a3.84,3.84,0,0,1-5.24-1.41,3.8,3.8,0,0,1-.39-2.91,3.86,3.86,0,0,1,1.79-2.34c12-6.92,24.28-2.94,29-.91,1,.42,2,.78,3,1.17.89.33,1.77.66,2.65,1a113.73,113.73,0,0,0,49.21,7.87A98.06,98.06,0,0,0,213,52.07a3.84,3.84,0,0,1,2.33,7.32,102.33,102.33,0,0,1-23.12,3.76C189.69,63.3,187.17,63.38,184.67,63.38Z"/><path class="cls-1" d="M61.38,235.59,48.62,215.41H28.14v-7.65H48c7.58,0,11.83-3.09,11.83-9.28s-4.25-9.35-11.83-9.35H0v-7.65H48c11.75,0,19.72,5.49,19.72,17,0,8.27-4.1,13.45-10.9,15.7l13.6,21.41Z"/><path class="cls-1" d="M128.56,235.59l-21.42-45.76L85.65,235.59H76.84L103,181.48h8.35l26.13,54.11Z"/><path class="cls-1" d="M147.73,181.48h7.65v54.11h-7.65Zm40,54.11-16.93-23.27h-6.19v-7.58h6.19l15.38-23.26h9.2l-17.94,27.05,19.79,27.06Z"/><path class="cls-1" d="M241.81,181.48v7.65H203.08v-7.65Zm-23.19,20.71h7.65v33.4h-7.65Z"/><path class="cls-1" d="M334.5,189.13H252.33v-7.65H334.5Zm.23,38.81v7.65h-82.4v-7.65ZM254.18,212v-7.65h78.54V212Z"/><path class="cls-1" d="M351.66,208.53c0,12.76,5.34,19.41,19.1,19.41h28.91v7.65H370.76c-18.09,0-27.06-10.13-27.06-27.06s9.59-27.05,27.06-27.05h28.91v7.65H370.76C357.69,189.13,351.66,195.85,351.66,208.53Z"/><path class="cls-1" d="M491.89,181.48v54.11h-7.65V212.4H419.38v23.19h-7.65V181.48h7.65v23.26h64.86V181.48Z"/></g></g></svg>