<svg xmlns="http://www.w3.org/2000/svg" viewBox="0 0 586.24 152.97"><defs><style>.cls-1{fill:#fff;}</style></defs><g id="Layer_2" data-name="Layer 2"><g id="Layer_2-2" data-name="Layer 2"><path class="cls-1" d="M170.1,150.77a1.59,1.59,0,0,1-1-.37,32.78,32.78,0,0,1-11-26.22c.89-16.51,14.64-24.56,15.23-24.89a1.64,1.64,0,1,1,1.63,2.84h0c-.13.08-12.79,7.54-13.58,22.22a30,30,0,0,0,9.77,23.5,1.64,1.64,0,0,1-1,2.92Z"/><path class="cls-1" d="M170.1,153a3.86,3.86,0,0,1-2.42-.85,35.18,35.18,0,0,1-11.8-28.06c1-17.68,15.71-26.32,16.33-26.68A3.84,3.84,0,1,1,176,104c-.1.06-11.76,7.07-12.47,20.43s8.87,21.6,9,21.68A3.84,3.84,0,0,1,170.1,153Zm-.36-3.41Zm4.1-49.33Z"/><path class="cls-1" d="M268.1,113.18a13.63,13.63,0,0,1-1.42-.07A15.58,15.58,0,0,1,260,110.8c-6.94-4.3-12.72-7.22-15.45-7.8-.32-.07-.61-.15-.83-.21-.66-.18-4.54-1-16.42,2a43.33,43.33,0,0,0-6.38,2.17,31.86,31.86,0,0,1-25.39-.18l-1-.43c-1.68-.66-6.08-2.82-10.81-8.66a1.64,1.64,0,1,1,2.55-2.06c4.36,5.38,8.34,7.23,9.46,7.67.35.13.71.29,1.14.47a28.58,28.58,0,0,0,22.8.17,46.68,46.68,0,0,1,6.86-2.33c12-3,16.68-2.41,18.11-2,.26.07.45.12.62.15,4.28.92,12.18,5.54,16.5,8.22a12.17,12.17,0,0,0,5.25,1.83,10.21,10.21,0,0,0,6.86-1.72,11.37,11.37,0,0,0,4.36-6.05c1.59-5.13,1.24-9.82-1.07-14a16.14,16.14,0,0,0-6.73-6.43c-34.05-17.77-41.93-28.78-42.76-30.06-9.48-11.71-21.17-18.1-34.73-19a45.86,45.86,0,0,0-17.76,2.23l-1.29-3c.19-.09,17.41-8.17,23.71-21.6-7.45,1-29.73,5.47-54.57,24a25.72,25.72,0,0,1-9.19,4.54c-5.34,1.49-14,2.25-24.81-2.6l-.11-.06c-.16-.09-16.34-8.78-34.14-5.79a42.25,42.25,0,0,0-9.25,2.75A57.77,57.77,0,0,1,44,37.44h0A48.45,48.45,0,0,1,10.45,24.31a1.64,1.64,0,1,1,2.21-2.43c20.88,19,44.75,11.08,51.58,8.21a44.82,44.82,0,0,1,10-3c18.58-3.12,34.9,5.41,36.2,6.11,18.9,8.43,30.37-1.38,30.49-1.48l.1-.09a136.16,136.16,0,0,1,41.29-21.35c10.7-3.27,17.48-3.64,17.76-3.65l2.43-.12-.8,2.3c-3.22,9.27-11.12,16.29-17.45,20.68a52.69,52.69,0,0,1,8.75-.19C203,30,217.64,34,230.26,49.62l.13.18c.06.1,7.14,11,41.54,29A19.44,19.44,0,0,1,280,86.51,20.62,20.62,0,0,1,281.34,103a14.59,14.59,0,0,1-5.65,7.79A13.29,13.29,0,0,1,268.1,113.18Z"/><path class="cls-1" d="M268.1,115.38c-.54,0-1.09,0-1.63-.08a17.77,17.77,0,0,1-7.61-2.63c-7.94-4.91-12.83-7.1-14.76-7.52-.37-.07-.72-.17-1-.24s-3.51-.92-15.28,2a40.17,40.17,0,0,0-6.06,2.06,34.08,34.08,0,0,1-27.13-.19l-1-.4c-1.84-.72-6.65-3.08-11.71-9.32a3.84,3.84,0,0,1,6-4.84c4.13,5.09,7.85,6.73,8.56,7l1.21.51a26.45,26.45,0,0,0,21.06.16A48.7,48.7,0,0,1,226,99.51c12.1-3.05,17.25-2.56,19.25-2l.48.12c4.38.93,11.77,5.14,17.2,8.5a10,10,0,0,0,4.3,1.51,8,8,0,0,0,5.42-1.36,9.11,9.11,0,0,0,3.49-4.88c1.41-4.52,1.11-8.64-.89-12.24a14,14,0,0,0-5.83-5.55c-33.37-17.41-42-28.42-43.51-30.7-9.08-11.17-20.21-17.26-33.1-18.1a44.17,44.17,0,0,0-16.84,2.08l-2,.75-3-6.93,1.94-.89c.15-.07,13.37-6.32,20.41-16.66-10.05,2-28.53,7.55-49,22.82a27.61,27.61,0,0,1-10,4.93c-5.68,1.6-14.86,2.42-26.3-2.7l-.2-.1c-.22-.12-15.86-8.43-32.79-5.59a40.49,40.49,0,0,0-8.76,2.61A60.07,60.07,0,0,1,44,39.64,50.61,50.61,0,0,1,9,25.94a3.84,3.84,0,1,1,5.17-5.69c19.91,18.1,42.73,10.56,49.24,7.81A47.68,47.68,0,0,1,73.85,25c18.91-3.18,35.36,5.14,37.53,6.3,17.33,7.7,27.65-.81,28.08-1.17l.22-.18a138.55,138.55,0,0,1,42-21.7c11-3.35,18-3.73,18.3-3.74l5.69-.28-1.87,5.38c-2.51,7.21-7.64,13.09-12.72,17.48.69,0,1.39.05,2.08.09C203.6,27.8,218.85,32,232,48.24l.29.4c.05.07,7.38,10.79,40.69,28.17a21.68,21.68,0,0,1,9,8.63c3,5.43,3.54,11.74,1.51,18.26a16.8,16.8,0,0,1-6.51,9A15.48,15.48,0,0,1,268.1,115.38Z"/><path class="cls-1" d="M67.23,98.14c-10.62,0-25.07-3.29-39.11-17l0-.05C28,80.94,15.43,67.9,4.39,71.8A1.64,1.64,0,1,1,3.3,68.7c12.91-4.56,26.3,9.21,27.14,10.09,11.8,11.54,25.22,16.91,39.87,16A48.63,48.63,0,0,0,89,89.82a1.64,1.64,0,1,1,1.61,2.86A50.91,50.91,0,0,1,70.67,98C69.58,98.1,68.43,98.14,67.23,98.14Z"/><path class="cls-1" d="M67.23,100.34c-10.32,0-25.74-3.06-40.64-17.65l-.07-.07c-.15-.15-11.77-12.14-21.4-8.75a3.86,3.86,0,0,1-4.9-2.34,3.84,3.84,0,0,1,2.34-4.9c14.07-5,27.94,9,29.47,10.65,11.29,11,24.14,16.19,38.14,15.28a47,47,0,0,0,17.77-4.67,3.84,3.84,0,0,1,3.75,6.71,53.54,53.54,0,0,1-20.87,5.62C69.64,100.3,68.43,100.34,67.23,100.34Zm22.85-8.6h0Z"/><path class="cls-1" d="M74.69,122.66a69.08,69.08,0,0,1-13.53-1.44A80.1,80.1,0,0,1,25,103.3a1.64,1.64,0,0,1,2.14-2.49A76.85,76.85,0,0,0,61.68,118a59.24,59.24,0,0,0,16.11,1.28,1.64,1.64,0,0,1,.35,3.26C78,122.53,76.79,122.66,74.69,122.66Z"/><path class="cls-1" d="M74.69,124.86a71.27,71.27,0,0,1-14-1.48A82.41,82.41,0,0,1,23.56,105a3.84,3.84,0,0,1,5-5.83,74.7,74.7,0,0,0,33.56,16.68,57.41,57.41,0,0,0,15.44,1.25,3.84,3.84,0,0,1,.82,7.64C78.24,124.72,76.93,124.86,74.69,124.86Z"/><path class="cls-1" d="M80.28,65.37a118,118,0,0,1-44.36-8.48c-.81-.33-1.66-.64-2.48-1-1.07-.39-2.18-.8-3.27-1.27-4-1.71-14.25-5.06-24.1.62a1.64,1.64,0,1,1-1.64-2.84c11.13-6.43,22.62-2.7,27-.79,1,.43,2,.81,3.11,1.21.84.31,1.71.63,2.57,1a116.11,116.11,0,0,0,50.17,8,99.92,99.92,0,0,0,21.9-3.52,1.64,1.64,0,1,1,1,3.12,100.57,100.57,0,0,1-22.59,3.67C85.38,65.28,82.92,65.37,80.28,65.37Z"/><path class="cls-1" d="M80.28,67.57a119.3,119.3,0,0,1-45.19-8.64c-.78-.32-1.59-.62-2.38-.91-1.14-.42-2.27-.84-3.41-1.33C25.64,55.11,16.15,52,7.17,57.2a3.85,3.85,0,0,1-5.25-1.41,3.8,3.8,0,0,1-.38-2.91,3.86,3.86,0,0,1,1.79-2.34c12-6.92,24.28-2.94,29-.91.95.42,1.94.78,3,1.17.88.33,1.77.66,2.64,1a113.77,113.77,0,0,0,49.21,7.87,98.24,98.24,0,0,0,21.37-3.42,3.84,3.84,0,0,1,2.33,7.32,102.5,102.5,0,0,1-23.13,3.76C85.3,67.49,82.78,67.57,80.28,67.57Z"/><path class="cls-1" d="M361.9,54.11,349.14,33.94H328.66V26.28h19.86c7.58,0,11.83-3.09,11.83-9.27s-4.25-9.36-11.83-9.36h-48V0h48c11.75,0,19.72,5.49,19.72,17,0,8.27-4.1,13.45-10.9,15.69l13.6,21.41Z"/><path class="cls-1" d="M429.08,54.11,407.66,8.35,386.17,54.11h-8.81L403.49,0h8.35L438,54.11Z"/><path class="cls-1" d="M448.25,0h7.65V54.11h-7.65Zm40,54.11L471.29,30.84H465.1V23.27h6.19L486.67,0h9.2L477.93,27.06l19.79,27.05Z"/><path class="cls-1" d="M336.16,92.77v7.65H297.43V92.77ZM313,113.48h7.65v33.4H313Z"/><path class="cls-1" d="M428.84,100.42H346.67V92.77h82.17Zm.23,38.81v7.65h-82.4v-7.65ZM348.53,123.3v-7.65h78.53v7.65Z"/><path class="cls-1" d="M446,119.82c0,12.76,5.33,19.41,19.09,19.41H494v7.65H465.1c-18.09,0-27.05-10.13-27.05-27.06s9.58-27,27.05-27H494v7.65H465.1C452,100.42,446,107.15,446,119.82Z"/><path class="cls-1" d="M586.24,92.77v54.11h-7.66V123.69H513.73v23.19h-7.65V92.77h7.65V116h64.85V92.77Z"/></g></g></svg>